<svg width="57" height="57" viewBox="0 0 57 57" fill="none" xmlns="http://www.w3.org/2000/svg">
<path d="M43.004 21.3143C43.5683 21.594 44.1912 21.0654 44.0001 20.4653C42.7509 16.543 38.8333 7.13157 29.8981 6.65546C19.718 6.1131 16.6533 12.5093 17.645 15.9742L18.8358 18.33C19.3786 20.0626 21.1222 23.1281 26.6554 22.9615C33.785 22.7468 36.9988 18.3377 43.004 21.3143Z" fill="#8AC44B"/>
<path d="M30.9161 10.7333C36.238 10.7355 40.0773 13.7381 42.7189 17.1361C40.7263 12.7495 36.8167 7.02405 29.8981 6.65546C19.718 6.1131 16.6533 12.5093 17.645 15.9742L18.3562 17.3811C19.5545 14.085 23.321 10.7303 30.9161 10.7333Z" fill="#009900"/>
<path d="M47.5521 29.557L44.9165 29.4104C43.1446 29.0142 39.618 28.9915 36.9957 33.8666C33.617 40.1483 35.8283 45.1362 30.248 48.8484C29.7236 49.1974 29.87 50.0011 30.4853 50.1356C34.5067 51.0149 44.616 52.3279 49.4959 44.8278C55.0556 36.2828 51.0487 30.4307 47.5521 29.557Z" fill="#8AC44B"/>
<path d="M34.4531 50.3719C40.0334 46.421 37.822 41.1125 41.2008 34.4271C43.058 30.7524 45.3687 29.6927 47.1886 29.5369L44.9165 29.4105C43.1446 29.0143 39.618 28.9915 36.9957 33.8667C33.617 40.1484 35.8283 45.1363 30.248 48.8485C29.7236 49.1974 29.87 50.0011 30.4853 50.1357C31.4318 50.3426 32.7156 50.5736 34.1889 50.708C34.2403 50.579 34.3268 50.4613 34.4531 50.3719Z" fill="#009900"/>
<path d="M12.2318 23.8505C12.1919 23.2219 11.4226 22.9468 10.9985 23.4124C8.22632 26.4554 2.03452 34.5538 6.08984 42.5299C10.7102 51.6173 17.7818 51.0733 20.2867 48.4821L21.7315 46.2728C22.9605 44.9364 24.7435 41.8937 21.8327 37.1851C18.0818 31.1182 12.6566 30.5394 12.2318 23.8505Z" fill="#8AC44B"/>
<path d="M10.0082 42.5299C6.87693 36.3711 9.85505 30.1402 12.651 26.2193C12.4337 25.5191 12.2882 24.7392 12.2318 23.8505C12.1919 23.2219 11.4226 22.9468 10.9985 23.4124C8.22632 26.4554 2.03452 34.5538 6.08984 42.5299C9.62303 49.479 14.5894 50.7959 17.8512 49.8723C15.2056 49.1826 12.3043 47.0458 10.0082 42.5299Z" fill="#009900"/>
<path d="M14.3952 19.8162C14.2136 19.9615 14.1197 20.1743 14.1169 20.3903L14.6018 20.9963C14.8793 21.3432 15.3973 21.3682 15.7073 21.0501C17.5897 19.1184 23.8813 13.3897 30.9033 15.0169C31.0551 15.052 31.1811 14.9987 31.262 14.9066C28.3792 13.5969 22.8759 13.0317 14.3952 19.8162Z" fill="#C4E0A6"/>
<path d="M14.52 19.828C22.8777 13.1419 28.2982 13.7066 31.1337 14.999C31.3836 14.8931 31.4643 14.5106 31.1776 14.3377C28.6516 12.8151 22.9958 11.3175 13.7315 18.7289C13.4137 18.9831 13.3634 19.4481 13.6176 19.7659L14.2651 20.5754C14.2009 20.3062 14.29 20.0121 14.52 19.828Z" fill="#ADD57F"/>
<path d="M47.1233 24.7902C47.062 24.3878 46.6844 24.1118 46.2822 24.1731L45.4741 24.2962C45.3008 24.4777 45.2217 24.7431 45.2959 25.0064C46.0276 27.6025 47.843 35.9155 42.9227 41.1831C42.7947 41.3201 42.7961 41.4889 42.8692 41.6168L42.898 41.663C45.4499 39.8989 48.7562 35.5115 47.1233 24.7902Z" fill="#C4E0A6"/>
<path d="M43.0182 41.1831C47.9385 35.9154 46.1231 27.6024 45.3914 25.0063C45.3149 24.7352 45.4002 24.461 45.5846 24.2793L44.7244 24.4103C44.2853 24.4772 44.0045 24.9132 44.1251 25.3408C44.8568 27.9369 46.6722 36.2499 41.752 41.5175C41.4628 41.8271 41.8322 42.2993 42.203 42.0945C42.4454 41.9606 42.7014 41.8026 42.9648 41.6167C42.8916 41.4889 42.8903 41.3202 43.0182 41.1831Z" fill="#ADD57F"/>
<path d="M25.6515 47.6222C23.0373 46.9579 14.9304 44.3735 12.8285 37.4786C12.7643 37.2679 12.573 37.1905 12.403 37.2233C12.5067 37.2433 12.6028 37.3054 12.658 37.4163C13.0213 40.5615 15.3597 45.489 25.267 49.3597C25.4732 49.4402 25.693 49.4212 25.876 49.3276L26.1577 48.6066C26.3194 48.1928 26.082 47.7317 25.6515 47.6222Z" fill="#C4E0A6"/>
<path d="M25.2744 49.2277C15.4748 45.399 13.1619 40.5252 12.8025 37.4142C12.6384 37.0847 12.1109 37.1816 12.1034 37.5809C12.0478 40.5297 13.5787 46.1768 24.6292 50.4942C25.0083 50.6422 25.4362 50.4533 25.5843 50.0743L25.9418 49.1591C25.7497 49.283 25.5034 49.3171 25.2744 49.2277Z" fill="#ADD57F"/>
</svg>
